<?xml version="1.0" encoding="UTF-8"?>
<svg version="1.1" viewBox="0 0 1600 959" width="290" height="174" xmlns="http://www.w3.org/2000/svg">
<path transform="translate(0)" d="m0 0h1600v959h-1600z" fill="#384854"/>
<path transform="translate(0)" d="m0 0h1600v959h-1600zm1165 27-1104 1-12 4-11 8-2 4h-2l-5 15-1 6v831l3 16 3 6 8 9 7 5 12 4 14 2h747l23-3 15-3 16-4 4-2 13-3 16-6 10-5 10-4 6-3v-2l7-2v-2l9-3v-2h3v-2l5-1v-2h3v-2l5-1v-2h3v-2h3v-2l4-2 3-1v-2h3l1-2 3-1v-2h3l1-2 3-1v-2l4-2 14-11 5-3 4-4 8-7 6-4 4-5 8-7 16-15 20-20 7-8 13-14 9-11 8-10 3-3 8-10v-2h2l6-9 2-4h2l3-5v-2h2l7-11 4-5v-2h2v-3h2v-3h2l2-6h2v-3h2v-3h2v-3h2v-3h2l8-14v-2h2l1-5h2v-3h2l1-5h2l5-10v-2h2l4-8 6-11 10-19 8-16 6-13 3-7 4-9 3-7 3-8 8-20 15-46 9-34 6-27 7-41 4-33 2-27v-88l-4-48-7-49-10-52-6-21-2-4h-2v-3l-7-5-5-3z" fill="#FDFDFE"/>
<path transform="translate(1310,26)" d="m0 0 14 1 23 5 17 7 14 8 11 9 12 12 10 13 10 18 10 23 6 19 6 25 5 33 2 32v23l-2 35-5 40-11 66-9 41-18 65-13 37-16 39-12 27-13 26-13 23-11 20-10 17-9 15-8 12-8 10-7 7-3 4-2 12 9-7 10-9 10-7 2 1h7l4-4v-2l-3 3 2-5h2v-10l9-7 10-14 11-14 10-15 14-25 12-22 24-47 17-40 10-27 11-34 12-44 7-30 7-36 6-44 4-47 2-53 2-4 11 9 9 9 10 13 11 17 9 16 6 15 8 26 5 30 1 12v53l-2 27-4 28-7 36-7 28-12 36-11 28-12 26-10 20-13 23-13 21-11 16-16 21-12 14-11 12-12 14-18 18-8 7-10 9-12 9-28 20-18 11-27 13-27 10-32 11 1 1h14l25-6 30-8 29-10 26-12 19-11 23-16 14-11 11-10 8-7 19-19 7-8 12-14 13-17 12-17 15-25 14-27 4-10h2l6 13 8 26 3 14 1 8v18l-3 17-5 17-12 25-8 14-13 17-9 11-12 13-8 8-11 9-10 8-20 14-21 13-16 8-24 10-34 12-31 9-27 6-49 8-9 1-22 1h-74l-216-1-4-2 10-5 20-9 30-15 24-14 23-14 17-12 18-13 17-14 15-13 12-11 13-12 25-25 9-11 11-12 22-28 12-17 10-14 16-24 17-29 12-22 16-32h3l5-9v-3h2l3-11 2-9 7-12 4-12 6-12 11-29 11-33 10-36 8-37 8-49 4-36 2-30v-75l-3-35-5-35-6-31-9-33-8-29z" fill="#D4BE74"/>
<path transform="translate(976,354)" d="m0 0h31l16 3 19 7 14 8v2l5 2 5 4v2l4 2 8 11 7 14 5 16 2 14v23l-5 23-5 15-8 16-10 13-12 12-14 9-15 7-14 4-13 2h-20l-18-4-13-5-15-8-10-8-8-9-8-13-7-16-5-16-3-16v-28l4-18 6-15 8-13 8-10 7-7 10-7 15-8 15-5z" fill="#D4BE73"/>
<path transform="translate(698,358)" d="m0 0 11 1 8 6 10 17 26 52 8 15 3 7 2-2 13-28 27-54 7-9 6-4 22-1 10 2 6 4 3 4 2 12 4 94 1 29v39l-3 9-5 4-7 2h-14l-10-4-4-7-2-16-1-18-1-50-1-29-1-14-10 21-10 19-13 26-9 15-8 9-5 3-9-1-7-5v-2l-3-1-8-14-14-26-7-12-9-19-4-9-2 61-1 44-2 17-2 4h-2l-1 3-5 4-3 1h-10l-8-4-4-6-1-5v-25l4-121 1-20 1-9 6-5 12-3z" fill="#D3BD73"/>
<path transform="translate(1121,791)" d="m0 0 2 1v2l4 2 8 8 9 5 7 10 5 9 7 10 5 15 7 15 6 14 4 7 2 9 1 13 4 9 4 6 3 6 7 3-2 2-4 1h-74l-216-1-4-2 10-5 20-9 30-15 24-14 23-14 17-12 18-13 17-14 15-13 12-11 13-12 7-7 4-2z" fill="#A89240"/>
<path transform="translate(474,358)" d="m0 0h10l10 3 5 4 3 6 1 111 2 14 4 11 8 9 11 5 8 2h12l9-2 11-7 7-9 4-11 1-6 1-114 4-8 7-6 7-2h13l8 3 5 5 3 8v109l-2 17-6 20-8 14-9 10-14 9-16 6-17 3-9 1h-13l-21-3-15-5-13-7-12-11-9-14-5-15-3-18v-118l3-7 8-5z" fill="#D4BE73"/>
<path transform="translate(385,359)" d="m0 0h10l8 4 10 9 5 9 1 9v149l-2 12-6 4-11 1-16-1-7-3-3-8-1-15v-61h-21l-63-1 4 38 5 24 5 16 5 13v5l-4-1-14-8-8-7-9-13-8-16-6-16-5-17-3-21v-31l4-24 5-16 7-12 6-6h2v-2l14-8 8-1v10l-3 14-5 40-1 6h85v-54l-1-5-3-3v-5l9-6z" fill="#D3BD73"/>
<path transform="translate(980,383)" d="m0 0h19l11 3 9 5 7 6 4 5 8 16 5 19 1 8v20l-3 17-5 17-7 14-9 10-8 6-9 4-4 1h-13l-14-4-8-4-7-6-4-5v-2h-2l-6-11v-3h-2l-5-21-1-8v-31l3-16 6-15 7-11 7-6 12-6z" fill="#374754"/>
<path transform="translate(245,399)" d="m0 0h2l-1 6-4 13-2 15v24l3 24 5 21 7 21 8 15 11 14 8 6 12 6 9 4 2 4-6 4-15 3h-14l-15-4-14-7-9-7-9-8-10-14-7-15-1-3v-20l5-12 4-2 3 4 8 24 8 18 7 10 9 10 12 9 11 5-4-4-9-7-9-9-7-10-8-16-6-14-6-21-2-12v-32l3-12 7-14 7-9z" fill="#D2BC72"/>
<path transform="translate(1165,27)" d="m0 0h92v3h-1132l-55-1v-1z" fill="#202938"/>
<path transform="translate(817,360)" d="m0 0h17l-3 2-3 14-5 4-6 10-7 11-8 11-9 15-7 10-5 8-5 5-2 3h-2l-2 5-6 5-1-5h3l1-7 23-47 16-32 7-9z" fill="#FAECA6"/>
<path transform="translate(599,358)" d="m0 0h13l8 3 5 5 1 5v24l-5 1-7-8-6-4-6 1-3 1-2 4-8 13-3 6-3 3-1-19v-14l1-10 6-7 6-3z" fill="#FCEDA8"/>
<path transform="translate(220,469)" d="m0 0h1l5 25 7 21 8 17 7 11 11 12 10 8 3 2v2l-5-1-12-7-13-12-6-8-5-8-10-24-6-18 1-9 3-9z" fill="#202A39"/>
<path transform="translate(1044,367)" d="m0 0 5 1 7 4v2l5 2 5 4v2l4 2 8 11 5 10 2 8v4l-4-2-3-5-7-5-6-3-10-3-4-2-1-9 3-1 2-9-5-5-6-5z" fill="#FAECA6"/>
<path transform="translate(249,500)" d="m0 0h3l1 12 1 5 2 1 4 9 6 8 1 2 5 2 3 2-1-4h2l8 11 11 8 10 6 4 6-3 1-1 3-3-4-17-7-11-8-10-12-8-14-7-18-1-8z" fill="#212B3A"/>
<path transform="translate(460,501)" d="m0 0 3 3 4 6 3 4 6 7 7 9 2 2 2 5-1 2 2 1v2l14 11 1 2-9-2-11-9-8-7-7-11-5-10-3-11z" fill="#FDEFAA"/>
<path transform="translate(910,522)" d="m0 0 5 1 7 3 13 4 4 2 3 6 2 10 2 4-6-2-10-6-10-8-9-11z" fill="#FFF1AC"/>
<path transform="translate(936,475)" d="m0 0 2 4v4h2l3 10v6h2l6 12v2h2l8 10-1 2-1-1h-6l-6 2-5-4-2-6-1-15-3-17z" fill="#F9EAA4"/>
<path transform="translate(696,530)" d="m0 0h1v15l-2 4h-2l-1 3-5 4h-12l-6-3-6-7v-3h2l2 5 8 1 9-5 10-13z" fill="#FCEEA9"/>
<path transform="translate(720,455)" d="m0 0 5 4 8 10 5 6 10 22 4 8v2l-5-2-5-5-14-26-5-9z" fill="#F5E59F"/>
<path transform="translate(1023,393)" d="m0 0 5 1 5 2 13 3 2 3v9l-2-3-2-4h-1l1 2v18l1 12-2-4-7-20-6-8-1-4-3-1-3-4z" fill="#FBEDA7"/>
<path transform="translate(292,364)" d="m0 0h5v10l-3 14-3 16-3 22-2 3-3-10v-8l3-6 4-18 1-4v-12h-9l1-3z" fill="#F9EAA4"/>
<path transform="translate(818,416)" d="m0 0h1l2 46v45l-2-4-2-47v-19l-7 2-5 8-1-2 8-16z" fill="#212B39"/>
<path transform="translate(499,475)" d="m0 0h1l4 22 2 8h2l6 8 4 4-1 2-11-6-5-4-3-6-2-11 1-13z" fill="#FAEBA6"/>
<path transform="translate(903,515)" d="m0 0 3 3 8 12 9 10 14 9 15 7 13 4 11 2h28l-4 2-3 1h-22l-19-4-20-9-14-10-7-7v-2h-2l-9-14z" fill="#212B3A"/>
<path transform="translate(701,422)" d="m0 0 3 3 8 18 18 33-1 2-12-19-8-15-3-2-3 6-1 5h-1z" fill="#202938"/>
<path transform="translate(289,466)" d="m0 0 63 1 21 1v3l-45-1-39-2z" fill="#232D3B"/>
<path transform="translate(256,414)" d="m0 0h1l3 12v11l-3 7-3 9-2-1v-13l1-20h2z" fill="#FCEEA9"/>
<path transform="translate(212,487)" d="m0 0 4 2 1 2v6l-4 3h-2l-2 4-2 9v7l-2-3v-16l5-12z" fill="#F4E59E"/>
<path transform="translate(242,569)" d="m0 0 4 1 11 5 13 3h14l12-1-3 2-14 3h-7l-17-4-10-6z" fill="#212B3A"/>
<path transform="translate(489,551)" d="m0 0 5 1 12 5 18 4 10 1h24v1l-7 1h-24l-23-4-12-6z" fill="#232D3C"/>
<path transform="translate(458,500)" d="m0 0 2 1 5 17 8 15 8 9 11 8-2 1-11-8-9-10-6-10-5-15z" fill="#BEA85A"/>
<path transform="translate(748,429)" d="m0 0 3 1 10 19v6l-5-5-5-6-1-8z" fill="#F2E29C"/>
<path transform="translate(1e3 385)" d="m0 0 6 1 9 5 7 6 4 5 8 16-1 3-7-13-9-11-8-7-9-4z" fill="#232D3A"/>
<path transform="translate(660,520)" d="m0 0h1l1 22 3 9 6 4 3 1h10l7-2-2 3-6 2h-9l-8-3-4-5-2-5z" fill="#202A39"/>
<path transform="translate(755,437)" d="m0 0 1 2 3 1 4 7 3 1v-2l4-1-3 9-3 3-9-17z" fill="#202A39"/>
<path transform="translate(1268,562)" d="m0 0 1 4-4 11-6 12h-3l2-6z" fill="#FAEBA6"/>
<path transform="translate(1322,721)" d="m0 0 1 3-5 5h-7l-1-3 8-4 2 1z" fill="#FBEDA8"/>
<path transform="translate(996,562)" d="m0 0h8l-4 2-3 1h-22v-2z" fill="#1F2837"/>
<path transform="translate(249,500)" d="m0 0h3l1 12 1 5h-2l-4-11v-5z" fill="#222C3B"/>
<path transform="translate(694,544)" d="m0 0h1v5h-2l-1 3-3 3h-6l1-3 9-6z" fill="#FAF8EF"/>
<path transform="translate(258,399)" d="m0 0h2l-1 9-1 6-2 1-2 4 1-10z" fill="#E5D38B"/>
<path transform="translate(271,564)" d="m0 0 10 3 4 3h-7l-8-2 2-1z" fill="#A89240"/>
<path transform="translate(469,358)" d="m0 0 3 1-10 5-6 5-1-5 2-2 9-3z" fill="#222C3A"/>
<path transform="translate(1268,562)" d="m0 0 1 4-4 11h-3l1-5z" fill="#FFF1AC"/>
<path transform="translate(802,445)" d="m0 0 1 4-6 12-3 1 2-6z" fill="#E7D68D"/>
<path transform="translate(662,545)" d="m0 0 5 5 5 4 12 2v1h-10l-8-4-4-6z" fill="#C2AC5E"/>
<path transform="translate(497,363)" d="m0 0 5 2 1 4v19h-1l-1-17z" fill="#202938"/>
<path transform="translate(815,418)" d="m0 0h1l-1 7-4 8-3 1 2-5z" fill="#EDDC95"/>
<path transform="translate(564,515)" d="m0 0 2 1-9 6-3 1h-7v-1l11-3z" fill="#242E3D"/>
<path transform="translate(901,917)" d="m0 0h3v2l-11 4h-3v-2z" fill="#5F5D49"/>
<path transform="translate(776,495)" d="m0 0 1 4-8 9-2-1 1-2h2l2-4z" fill="#EEDE97"/>
<path transform="translate(262,561)" d="m0 0 7 2 3 2v2l-5-1-6-3z" fill="#384855"/>
</svg>
